<svg data-v-423bf9ae="" xmlns="http://www.w3.org/2000/svg" viewBox="0 0 46.297941366374374 60" class="font"><!----><!----><defs data-v-423bf9ae=""><linearGradient data-v-423bf9ae="" gradientTransform="rotate(25)" id="1ee7dee7-69f9-47c6-b386-53a202485dde" x1="0%" y1="0%" x2="100%" y2="0%"><stop data-v-423bf9ae="" offset="0%" style="stop-color: rgb(0, 102, 120); stop-opacity: 1;"></stop><stop data-v-423bf9ae="" offset="100%" style="stop-color: rgb(79, 168, 255); stop-opacity: 1;"></stop></linearGradient></defs><g data-v-423bf9ae="" id="03ae0860-c95f-4986-ac52-121ff76d8497" fill="url(#1ee7dee7-69f9-47c6-b386-53a202485dde)" transform="matrix(4.938271759983636,0,0,4.938271759983636,4.3621393401155935,5.876543200113545)"><path d="M8.41 0.69L8.41 0.69L8.41 0.69Q8.48 0.73 8.49 0.80L8.49 0.80L8.49 0.80Q8.50 0.88 8.46 0.95L8.46 0.95L8.46 0.95Q8.43 0.98 8.37 1.12L8.37 1.12L8.37 1.12Q8.32 1.26 8.20 1.60L8.20 1.60L8.20 1.60Q8.11 1.90 8.06 2.13L8.06 2.13L8.06 2.13Q8.01 2.35 7.98 2.51L7.98 2.51L7.98 2.51Q7.81 4.09 7.71 5.06L7.71 5.06L7.71 5.06Q7.62 6.03 7.56 6.58L7.56 6.58L7.56 6.58Q7.50 7.13 7.48 7.34L7.48 7.34L7.48 7.34Q7.46 7.55 7.46 7.57L7.46 7.57L7.46 8.93L7.46 8.93Q7.48 9.65 7.57 10.08L7.57 10.08L7.57 10.08Q7.63 10.35 7.68 10.43L7.68 10.43L7.68 10.43Q7.73 10.51 7.76 10.53L7.76 10.53L7.76 10.53Q7.83 10.60 7.83 10.68L7.83 10.68L7.83 10.68Q7.83 10.77 7.76 10.84L7.76 10.84L7.76 10.84Q7.60 10.96 7.29 10.96L7.29 10.96L7.29 10.96Q7.15 10.96 6.99 10.88L6.99 10.88L6.99 10.88Q6.83 10.79 6.71 10.53L6.71 10.53L6.71 10.53Q6.52 10.15 6.47 9.49L6.47 9.49L6.45 9.09L6.45 9.09Q6.44 8.85 6.43 8.74L6.43 8.74L6.43 8.74Q6.43 8.64 6.41 8.40L6.41 8.40L6.41 8.40Q6.06 9.07 5.79 9.49L5.79 9.49L5.79 9.49Q5.52 9.91 5.32 10.14L5.32 10.14L5.32 10.14Q4.77 10.72 3.92 10.72L3.92 10.72L3.92 10.72Q2.55 10.72 1.85 9.62L1.85 9.62L1.85 9.62Q1.51 9.10 1.34 8.30L1.34 8.30L1.34 8.30Q1.26 7.91 1.23 7.46L1.23 7.46L1.23 7.46Q1.19 7.01 1.19 6.50L1.19 6.50L1.19 6.50Q1.19 6.16 1.22 5.68L1.22 5.68L1.22 5.68Q1.25 5.19 1.31 4.65L1.31 4.65L1.31 4.65Q1.37 4.10 1.47 3.51L1.47 3.51L1.47 3.51Q1.57 2.93 1.69 2.38L1.69 2.38L1.69 2.38Q0.77 3.01 0.18 3.01L0.18 3.01L0.18 3.01Q-0.35 3.01-0.83 2.58L-0.83 2.58L-0.83 2.58Q-0.91 2.49-0.87 2.35L-0.87 2.35L-0.87 2.35Q-0.81 2.23-0.69 2.23L-0.69 2.23L-0.38 2.23L-0.38 2.23Q0.52 2.23 1.34 1.43L1.34 1.43L1.34 1.43Q2.18 0.63 2.95-1.08L2.95-1.08L2.95-1.08Q3.02-1.19 3.14-1.19L3.14-1.19L3.14-1.19Q3.18-1.19 3.19-1.18L3.19-1.18L3.19-1.18Q3.63-1.06 3.88-0.90L3.88-0.90L3.88-0.90Q4.19-0.70 4.19-0.48L4.19-0.48L4.19-0.48Q4.19-0.29 3.91 0.03L3.91 0.03L3.91 0.03Q3.89 0.03 3.89 0.04L3.89 0.04L3.89 0.04Q3.64 0.29 3.56 0.49L3.56 0.49L3.56 0.49Q3.25 1.20 3.02 1.99L3.02 1.99L3.02 1.99Q2.80 2.79 2.65 3.59L2.65 3.59L2.65 3.59Q2.49 4.40 2.42 5.17L2.42 5.17L2.42 5.17Q2.34 5.95 2.34 6.64L2.34 6.64L2.34 6.64Q2.34 7.46 2.42 8.07L2.42 8.07L2.42 8.07Q2.51 8.68 2.69 9.06L2.69 9.06L2.69 9.06Q3.04 9.87 3.91 9.87L3.91 9.87L3.91 9.87Q4.58 9.87 5.25 8.83L5.25 8.83L5.25 8.83Q5.85 7.85 6.29 6.24L6.29 6.24L6.29 6.24Q6.64 4.91 6.79 3.65L6.79 3.65L6.79 3.65Q6.94 2.38 6.87 1.16L6.87 1.16L6.87 1.16Q6.87 1.08 6.86 0.99L6.86 0.99L6.86 0.99Q6.85 0.91 6.83 0.83L6.83 0.83L6.83 0.83Q6.78 0.64 6.78 0.49L6.78 0.49L6.78 0.49Q6.78 0.45 6.80 0.39L6.80 0.39L6.80 0.39Q6.96 0.11 7.29 0.11L7.29 0.11L7.29 0.11Q7.41 0.11 7.65 0.20L7.65 0.20L7.65 0.20Q7.90 0.29 8.41 0.69Z"></path></g><!----><!----></svg>